<svg xmlns="http://www.w3.org/2000/svg" version="1.1" xmlns:xlink="http://www.w3.org/1999/xlink" xmlns:svgjs="http://svgjs.dev/svgjs" width="1500" height="1500" viewBox="0 0 1500 1500"><rect width="1500" height="1500" fill="#000000"></rect><g transform="matrix(0.6666666666666666,0,0,0.6666666666666666,249.39393939393938,539.095659389318)"><svg viewBox="0 0 396 167" data-background-color="#ffffff" preserveAspectRatio="xMidYMid meet" height="632" width="1500" xmlns="http://www.w3.org/2000/svg" xmlns:xlink="http://www.w3.org/1999/xlink"><g id="tight-bounds" transform="matrix(1,0,0,1,0.2400000000000091,0.09420462496180448)"><svg viewBox="0 0 395.52 166.8115907500764" height="166.8115907500764" width="395.52"><g><svg viewBox="0 0 580.8680474408907 244.9826127869787" height="166.8115907500764" width="395.52"><g><rect width="8.306588054744196" height="244.9826127869787" x="223.82544496624394" y="0" fill="#ffffff" opacity="1" stroke-width="0" stroke="transparent" fill-opacity="1" class="rect-qz-0" data-fill-palette-color="primary" rx="1%" id="qz-0" data-palette-color="#202046"></rect></g><g transform="matrix(1,0,0,1,253.87702792869544,0.6094094845447131)"><svg viewBox="0 0 326.9910195121952 243.76379381788928" height="243.76379381788928" width="326.9910195121952"><g id="textblocktransform"><svg viewBox="0 0 326.9910195121952 243.76379381788928" height="243.76379381788928" width="326.9910195121952" id="textblock"><g><svg viewBox="0 0 326.9910195121952 198.764" height="198.764" width="326.9910195121952"><g transform="matrix(1,0,0,1,0,0)"><svg width="326.9910195121952" viewBox="0.49999999999999645 -37.5 134.9 79" height="198.764" data-palette-color="#202046"><svg></svg><svg></svg><g class="wordmark-text-0" data-fill-palette-color="primary" id="text-0"><path d="M1.05-33.9v-1.1h26l0.5 9.9h-0.9c-1.4-3.367-2.867-5.673-4.4-6.92-1.533-1.253-3.783-1.88-6.75-1.88v0h-1.75v15.45h1.7c1.567 0 2.883-0.593 3.95-1.78 1.067-1.18 1.817-2.77 2.25-4.77v0h0.75v14.8h-0.85c-0.6-2.5-1.407-4.283-2.42-5.35-1.02-1.067-2.413-1.6-4.18-1.6v0h-1.2v16.05h1.9c3.067 0 5.677-0.917 7.83-2.75 2.147-1.833 3.62-4.183 4.42-7.05v0h1l-0.4 10.9h-27.45v-1.1h2.95v-32.8zM31.5-36.6v-0.9h12.25v36.6h2.8v0.9h-14.85v-0.9h2.75v-35.7zM54.85-27.25c-1.767 0-3.023-0.45-3.77-1.35-0.753-0.9-1.13-2.017-1.13-3.35 0-1.333 0.407-2.433 1.22-3.3 0.82-0.867 2.063-1.3 3.73-1.3 1.667 0 2.933 0.39 3.8 1.17 0.867 0.787 1.3 1.907 1.3 3.36 0 1.447-0.417 2.603-1.25 3.47-0.833 0.867-2.133 1.3-3.9 1.3zM47.3-22.9v-0.9h12.25v22.9h2.8v0.9h-14.85v-0.9h2.75v-22zM75.35-11.75v0h1.45v-3.85c0-3.167-0.173-5.293-0.52-6.38-0.353-1.08-1.03-1.62-2.03-1.62v0c-0.6 0-1.14 0.157-1.62 0.47-0.487 0.32-0.73 0.753-0.73 1.3 0 0.553 0.1 1.113 0.3 1.68v0h1.25c0.267 0.7 0.4 1.54 0.4 2.52 0 0.987-0.417 1.837-1.25 2.55-0.833 0.72-1.883 1.08-3.15 1.08v0c-2.867 0-4.3-1.383-4.3-4.15v0c0-4.1 3.483-6.15 10.45-6.15v0c3.967 0 6.71 0.673 8.23 2.02 1.513 1.353 2.27 3.83 2.27 7.43v0 10.15c0 1.733 0.483 2.6 1.45 2.6v0c1.133 0 1.8-1.717 2-5.15v0l0.75 0.05c-0.133 2.933-0.683 4.95-1.65 6.05-0.967 1.1-2.55 1.65-4.75 1.65v0c-4 0-6.3-1.233-6.9-3.7v0c-0.433 1.267-1.083 2.2-1.95 2.8-0.867 0.6-2.133 0.9-3.8 0.9v0c-4.933 0-7.4-2.017-7.4-6.05v0c0-2.367 0.94-3.993 2.82-4.88 1.887-0.88 4.78-1.32 8.68-1.32zM73.35-5.6c0 1.733 0.093 2.85 0.28 3.35 0.18 0.5 0.527 0.75 1.04 0.75 0.52 0 1.007-0.427 1.46-1.28 0.447-0.847 0.67-2.02 0.67-3.52v0-4.65h-0.35c-2.067 0-3.1 1.517-3.1 4.55v0zM92.55 0.5h-0.6v-8.95h0.6c0.867 2.9 2.033 4.933 3.5 6.1 1.467 1.167 3.3 1.75 5.5 1.75v0c3.4 0 5.1-1.083 5.1-3.25v0c0-0.933-0.417-1.633-1.25-2.1v0c-1.3-0.733-2.967-1.3-5-1.7v0c-2.267-0.6-4.167-1.4-5.7-2.4v0c-1.833-1.2-2.75-3.1-2.75-5.7 0-2.6 0.8-4.677 2.4-6.23 1.6-1.547 3.733-2.32 6.4-2.32v0c1.633 0 3.317 0.383 5.05 1.15v0c0.633 0.267 1.117 0.4 1.45 0.4 0.333 0 0.617-0.117 0.85-0.35 0.233-0.233 0.517-0.667 0.85-1.3v0h0.55v7.65h-0.6c-1.7-4.333-4.333-6.5-7.9-6.5v0c-1.567 0-2.733 0.273-3.5 0.82-0.767 0.553-1.15 1.247-1.15 2.08v0c0 0.5 0.117 0.89 0.35 1.17 0.233 0.287 0.417 0.497 0.55 0.63 0.133 0.133 0.35 0.273 0.65 0.42 0.3 0.153 0.55 0.27 0.75 0.35 0.2 0.087 0.51 0.197 0.93 0.33 0.413 0.133 0.72 0.217 0.92 0.25v0c2.267 0.567 3.9 1.057 4.9 1.47 1 0.42 1.95 0.93 2.85 1.53v0c1.833 1.267 2.75 3.307 2.75 6.12 0 2.82-0.833 4.953-2.5 6.4-1.667 1.453-3.95 2.18-6.85 2.18v0c-2.067 0-4.067-0.483-6-1.45v0c-0.4-0.267-0.717-0.4-0.95-0.4v0c-0.733 0-1.45 0.617-2.15 1.85z" fill="#ffffff" fill-rule="nonzero" stroke="none" stroke-width="1" stroke-linecap="butt" stroke-linejoin="miter" stroke-miterlimit="10" stroke-dasharray="" stroke-dashoffset="0" font-family="none" font-weight="none" font-size="none" text-anchor="none" style="mix-blend-mode: normal" data-fill-palette-color="primary" opacity="1"></path><path transform="translate(0,41)" d="M18.75-13.45c0-3.433-0.167-5.743-0.5-6.93-0.333-1.18-0.983-1.77-1.95-1.77-0.967 0-1.833 0.6-2.6 1.8-0.767 1.2-1.15 2.85-1.15 4.95v0 9.3c0 1.433 0.293 2.65 0.88 3.65 0.58 1 1.413 1.5 2.5 1.5 1.08 0 1.82-0.733 2.22-2.2 0.4-1.467 0.6-4.033 0.6-7.7v0zM0.5-37.5h12.05v17.5c1.267-2.867 3.433-4.3 6.5-4.3v0c6.233 0 9.35 4.15 9.35 12.45v0c0 4.233-0.857 7.35-2.57 9.35-1.72 2-4.297 3-7.73 3v0c-1.733 0-3.057-0.267-3.97-0.8-0.92-0.533-1.547-1.417-1.88-2.65v0l-0.35 2.95h-11.4v-0.9h2.75v-35.7h-2.75zM46.05-9.85v0-4.25c0-3.233-0.173-5.593-0.52-7.08-0.353-1.48-1.163-2.22-2.43-2.22v0c-0.733 0-1.323 0.207-1.77 0.62-0.453 0.42-0.78 1.113-0.98 2.08v0c-0.3 1.5-0.45 3.783-0.45 6.85v0 3.9c0 3.633 0.11 5.817 0.33 6.55 0.213 0.733 0.437 1.333 0.67 1.8v0c0.367 0.8 1.083 1.2 2.15 1.2v0c1.3 0 2.15-0.75 2.55-2.25v0c0.3-1.067 0.45-3.467 0.45-7.2zM42.95 0.5c-4.167 0-7.317-1.067-9.45-3.2-2.133-2.133-3.2-5.193-3.2-9.18 0-3.98 1.143-7.047 3.43-9.2 2.28-2.147 5.487-3.22 9.62-3.22 4.133 0 7.217 0.99 9.25 2.97 2.033 1.987 3.05 5.013 3.05 9.08v0c0 8.5-4.233 12.75-12.7 12.75zM73.2-9.85v0-4.25c0-3.233-0.173-5.593-0.52-7.08-0.353-1.48-1.163-2.22-2.43-2.22v0c-0.733 0-1.323 0.207-1.77 0.62-0.453 0.42-0.78 1.113-0.98 2.08v0c-0.3 1.5-0.45 3.783-0.45 6.85v0 3.9c0 3.633 0.11 5.817 0.33 6.55 0.213 0.733 0.437 1.333 0.67 1.8v0c0.367 0.8 1.083 1.2 2.15 1.2v0c1.3 0 2.15-0.75 2.55-2.25v0c0.3-1.067 0.45-3.467 0.45-7.2zM70.1 0.5c-4.167 0-7.317-1.067-9.45-3.2-2.133-2.133-3.2-5.193-3.2-9.18 0-3.98 1.143-7.047 3.43-9.2 2.28-2.147 5.487-3.22 9.62-3.22 4.133 0 7.217 0.99 9.25 2.97 2.033 1.987 3.05 5.013 3.05 9.08v0c0 8.5-4.233 12.75-12.7 12.75zM114.45 0h-13.9v-0.9h2.3l-5.65-11.6-0.95 0.25v11.35h2.3v0.9h-14.35v-0.9h2.75v-35.7h-2.95v-0.9h12.25v24.25l0.8-0.3 11.25-9.35h-4.7v-0.9h9.85v0.9h-3.5l-5.95 5.05 8.65 16.95h1.8zM116.95 0.5h-0.6v-8.95h0.6c0.867 2.9 2.033 4.933 3.5 6.1 1.467 1.167 3.3 1.75 5.5 1.75v0c3.4 0 5.1-1.083 5.1-3.25v0c0-0.933-0.417-1.633-1.25-2.1v0c-1.3-0.733-2.967-1.3-5-1.7v0c-2.267-0.6-4.167-1.4-5.7-2.4v0c-1.833-1.2-2.75-3.1-2.75-5.7 0-2.6 0.8-4.677 2.4-6.23 1.6-1.547 3.733-2.32 6.4-2.32v0c1.633 0 3.317 0.383 5.05 1.15v0c0.633 0.267 1.117 0.4 1.45 0.4 0.333 0 0.617-0.117 0.85-0.35 0.233-0.233 0.517-0.667 0.85-1.3v0h0.55v7.65h-0.6c-1.7-4.333-4.333-6.5-7.9-6.5v0c-1.567 0-2.733 0.273-3.5 0.82-0.767 0.553-1.15 1.247-1.15 2.08v0c0 0.5 0.117 0.89 0.35 1.17 0.233 0.287 0.417 0.497 0.55 0.63 0.133 0.133 0.35 0.273 0.65 0.42 0.3 0.153 0.55 0.27 0.75 0.35 0.2 0.087 0.51 0.197 0.93 0.33 0.413 0.133 0.72 0.217 0.92 0.25v0c2.267 0.567 3.9 1.057 4.9 1.47 1 0.42 1.95 0.93 2.85 1.53v0c1.833 1.267 2.75 3.307 2.75 6.12 0 2.82-0.833 4.953-2.5 6.4-1.667 1.453-3.95 2.18-6.85 2.18v0c-2.067 0-4.067-0.483-6-1.45v0c-0.4-0.267-0.717-0.4-0.95-0.4v0c-0.733 0-1.45 0.617-2.15 1.85z" fill="#ffffff" fill-rule="nonzero" stroke="none" stroke-width="1" stroke-linecap="butt" stroke-linejoin="miter" stroke-miterlimit="10" stroke-dasharray="" stroke-dashoffset="0" font-family="none" font-weight="none" font-size="none" text-anchor="none" style="mix-blend-mode: normal" data-fill-palette-color="primary" opacity="1"></path></g></svg></g></svg></g><g transform="matrix(1,0,0,1,0,220.50899490770732)"><svg viewBox="0 0 310.6414685365854 23.25479891018196" height="23.25479891018196" width="310.6414685365854"><g transform="matrix(1,0,0,1,0,0)"><svg width="310.6414685365854" viewBox="2.05 -34.9 474.96 34.9" height="23.25479891018196" data-palette-color="#9a3e27"><g class="slogan-text-1" data-fill-palette-color="secondary" id="text-1"><path d="M2.05 0L2.05-3.3 5.55-3.3 5.55-31.6 2.05-31.6 2.05-34.9 17.15-34.9 17.15-31.6 13.65-31.6 13.65-3.3 17.15-3.3 17.15 0 2.05 0ZM21.25 0L21.25-3.3 24.75-3.3 24.75-31.6 21.25-31.6 21.25-34.9 36.6-34.9 36.6-31.6 32.85-31.6 32.85-3.6 42.35-3.6 42.35-10.3 48.15-10.3 48.15 0 21.25 0ZM59.4 0L59.4-3.3 63.35-3.3 63.35-13.95 53.95-31.6 51.45-31.6 51.45-34.9 66.15-34.9 66.15-31.6 62.65-31.6 69.35-18.5 69.55-18.5 76.5-31.6 73-31.6 73-34.9 83.34-34.9 83.34-31.6 80.8-31.6 71.45-15.05 71.45-3.3 75.4-3.3 75.4 0 59.4 0ZM85.29 0L85.29-3.3 87.79-3.3 98.64-34.9 105.54-34.9 116.39-3.3 118.89-3.3 118.89 0 104.24 0 104.24-3.3 108.24-3.3 105.84-10.65 94.44-10.65 92.04-3.3 96.04-3.3 96.04 0 85.29 0ZM100.04-28.8L95.44-14.1 104.94-14.1 100.24-28.8 100.04-28.8Z" fill="#ffffff" data-fill-palette-color="primary"></path><path d="M132.54 0L132.54-3.3 136.04-3.3 136.04-31.6 132.54-31.6 132.54-34.9 147.89-34.9 147.89-31.6 144.14-31.6 144.14-3.6 153.64-3.6 153.64-10.3 159.44-10.3 159.44 0 132.54 0ZM162.19 0L162.19-3.3 164.69-3.3 175.54-34.9 182.44-34.9 193.29-3.3 195.79-3.3 195.79 0 181.14 0 181.14-3.3 185.14-3.3 182.74-10.65 171.34-10.65 168.94-3.3 172.94-3.3 172.94 0 162.19 0ZM176.94-28.8L172.34-14.1 181.84-14.1 177.14-28.8 176.94-28.8ZM210.33 0L199.73-31.6 197.23-31.6 197.23-34.9 211.93-34.9 211.93-31.6 207.93-31.6 212.48-16.8 215.43-6.1 215.73-6.1 218.88-16.8 223.58-31.6 219.58-31.6 219.58-34.9 230.33-34.9 230.33-31.6 227.83-31.6 217.23 0 210.33 0ZM233.18 0L233.18-3.3 236.68-3.3 236.68-31.6 233.18-31.6 233.18-34.9 252.83-34.9Q255.13-34.9 257.08-34.4 259.03-33.9 260.46-32.83 261.88-31.75 262.68-30.08 263.48-28.4 263.48-26.05L263.48-26.05Q263.48-24.25 262.88-22.75 262.28-21.25 261.23-20.13 260.18-19 258.78-18.23 257.38-17.45 255.73-17.1L255.73-17.1 262.18-6.25Q263.18-4.55 264.26-3.93 265.33-3.3 266.93-3.3L266.93-3.3 267.18-3.3 267.18 0 262.43 0Q260.68 0 259.38-0.28 258.08-0.55 257.08-1.15 256.08-1.75 255.33-2.65 254.58-3.55 253.93-4.85L253.93-4.85 248.53-15.45 244.78-15.45 244.78-3.3 248.28-3.3 248.28 0 233.18 0ZM244.78-31.3L244.78-18.85 249.78-18.85Q255.13-18.85 255.13-23.6L255.13-23.6 255.13-26.55Q255.13-31.3 249.78-31.3L249.78-31.3 244.78-31.3ZM269.93 0L269.93-3.3 273.43-3.3 273.43-31.6 269.93-31.6 269.93-34.9 297.78-34.9 297.78-25.6 291.98-25.6 291.98-31.3 281.53-31.3 281.53-20 288.13-20 288.13-23 291.83-23 291.83-13.4 288.13-13.4 288.13-16.4 281.53-16.4 281.53-3.6 292.38-3.6 292.38-10.3 298.18-10.3 298.18 0 269.93 0ZM302.83 0L302.83-3.3 306.33-3.3 306.33-31.6 302.83-31.6 302.83-34.9 316.33-34.9 330.63-10.05 330.93-10.05 330.93-31.6 327.43-31.6 327.43-34.9 338.28-34.9 338.28-31.6 334.83-31.6 334.83 0 327.53 0 310.53-29.05 310.23-29.05 310.23-3.3 313.73-3.3 313.73 0 302.83 0ZM349.27 0L349.27-3.3 354.02-3.3 354.02-31.3 347.52-31.3 347.52-25.6 341.72-25.6 341.72-34.9 374.42-34.9 374.42-25.6 368.62-25.6 368.62-31.3 362.12-31.3 362.12-3.3 366.87-3.3 366.87 0 349.27 0ZM385.02 0L385.02-3.3 388.97-3.3 388.97-13.95 379.57-31.6 377.07-31.6 377.07-34.9 391.77-34.9 391.77-31.6 388.27-31.6 394.97-18.5 395.17-18.5 402.12-31.6 398.62-31.6 398.62-34.9 408.97-34.9 408.97-31.6 406.42-31.6 397.07-15.05 397.07-3.3 401.02-3.3 401.02 0 385.02 0ZM412.27 0L412.27-3.3 415.77-3.3 415.77-31.6 412.27-31.6 412.27-34.9 440.12-34.9 440.12-25.6 434.32-25.6 434.32-31.3 423.87-31.3 423.87-20 430.47-20 430.47-23 434.17-23 434.17-13.4 430.47-13.4 430.47-16.4 423.87-16.4 423.87-3.6 434.72-3.6 434.72-10.3 440.52-10.3 440.52 0 412.27 0ZM457.01 0L446.41-31.6 443.91-31.6 443.91-34.9 458.61-34.9 458.61-31.6 454.61-31.6 459.16-16.8 462.11-6.1 462.41-6.1 465.56-16.8 470.26-31.6 466.26-31.6 466.26-34.9 477.01-34.9 477.01-31.6 474.51-31.6 463.91 0 457.01 0Z" fill="#ffffff" data-fill-palette-color="secondary"></path></g></svg></g></svg></g></svg></g></svg></g><g transform="matrix(1,0,0,1,0,32.3505412145134)"><svg viewBox="0 0 202.08045005853663 180.2815303579519" height="180.2815303579519" width="202.08045005853663"><g><svg xmlns="http://www.w3.org/2000/svg" xmlns:xlink="http://www.w3.org/1999/xlink" version="1.1" x="0" y="0" viewBox="8.386999999999999 13.004999999999999 84.192 75.11" enable-background="new 0 0 100 100" xml:space="preserve" height="180.2815303579519" width="202.08045005853663" class="icon-icon-0" data-fill-palette-color="accent" id="icon-0"><g fill="#9a3e27" data-fill-palette-color="accent"><path d="M49.569 22.967c-9.975-5.691-20.677-9.125-31.045-9.962v58.351c10.367 0.814 21.05 4.154 31.045 9.699V22.967z" fill="#ffffff" data-fill-palette-color="accent"></path><path d="M49.229 84.073c0.814 0.278 1.671 0.29 2.485 0.012 11.657-5.043 23.865-7.313 35.798-6.79V19.524c-1.074-0.048-2.155-0.059-3.24-0.055v53.594l-0.852 0.056c-10.672 0.697-21.732 4.177-32.021 10.048-0.594 0.203-1.237 0.203-1.83 0-10.29-5.871-21.349-9.351-32.021-10.048l-0.854-0.056V19.469c-1.084-0.004-2.166 0.006-3.239 0.055v57.771C25.387 76.771 37.569 79.03 49.229 84.073z" fill="#ffffff" data-fill-palette-color="accent"></path><path d="M92.579 26.009c-1.07-0.149-2.157-0.228-3.237-0.335v53.55l-0.968-0.056c-12.195-0.699-25.06 1.777-36.975 7.065l-0.916 0.381-0.915-0.381c-11.917-5.288-24.781-7.765-36.976-7.065l-0.967 0.056v-53.55c-1.081 0.108-2.168 0.187-3.238 0.335v58.707c0.594 0.307 1.044 0.748 1.044 0.748 12.951-1.75 26.393-1.536 39.18 2.651 0.588-0.058 1.212-0.095 1.873-0.095 0.661 0 1.285 0.037 1.872 0.095 12.785-4.188 26.229-4.401 39.179-2.651 0 0 0.474-0.462 1.044-0.748V26.009z" fill="#ffffff" data-fill-palette-color="accent"></path><path d="M65.283 16.667v20.625l-3.98-4.738-4.195 4.738V19.994c-1.924 0.91-3.829 1.901-5.708 2.974v58.087c9.993-5.545 20.679-8.885 31.045-9.699V13.005C76.766 13.464 70.987 14.706 65.283 16.667z" fill="#ffffff" data-fill-palette-color="accent"></path></g></svg></g></svg></g></svg></g><defs></defs></svg><rect width="395.52" height="166.8115907500764" fill="none" stroke="none" visibility="hidden"></rect></g></svg></g></svg>